<svg xmlns="http://www.w3.org/2000/svg" xmlns:xlink="http://www.w3.org/1999/xlink" width="1920" height="187" viewBox="0 0 1920 187">
  <defs>
    <clipPath id="clip-Web_1920_1">
      <rect width="1920" height="187"/>
    </clipPath>
  </defs>
  <g id="Web_1920_1" data-name="Web 1920 – 1" clip-path="url(#clip-Web_1920_1)">
    <rect width="1920" height="187" fill="#fff"/>
    <path id="Path_15" data-name="Path 15" d="M0,0H1223" transform="translate(340.5 85.5)" fill="none" stroke="#d3e8f1" stroke-width="1"/>
    <circle id="Ellipse_1" data-name="Ellipse 1" cx="84" cy="84" r="84" transform="translate(867 1)" fill="#57b894"/>
    <circle id="Ellipse_7" data-name="Ellipse 7" cx="84" cy="84" r="84" transform="translate(257 1)" fill="#4285f4"/>
    <g id="investment-svgrepo-com" transform="translate(891.076 27.409)">
      <g id="Group_7" data-name="Group 7" transform="translate(0 1.586)">
        <path id="Path_9" data-name="Path 9" d="M107.476,59.909a5.724,5.724,0,1,1,5.724-5.724A5.73,5.73,0,0,1,107.476,59.909Z" transform="translate(-57.237 -29.475)" fill="#f0ff18"/>
        <path id="Path_10" data-name="Path 10" d="M159.038,41.159a5.724,5.724,0,1,1,5.724-5.724A5.73,5.73,0,0,1,159.038,41.159Z" transform="translate(-86.241 -21.125)" fill="#f0ff18"/>
        <rect id="Rectangle_1" data-name="Rectangle 1" width="2.862" height="7.155" transform="translate(45.151 5.724)" fill="#fff"/>
        <rect id="Rectangle_2" data-name="Rectangle 2" width="2.862" height="8.586" transform="translate(53.105 4.293)" fill="#fff"/>
        <rect id="Rectangle_3" data-name="Rectangle 3" width="2.862" height="5.724" transform="translate(67.024 1.431)" fill="#fff"/>
        <rect id="Rectangle_4" data-name="Rectangle 4" width="2.862" height="7.155" transform="translate(74.978)" fill="#fff"/>
        <g id="Component_1_1" data-name="Component 1 – 1" transform="translate(0 20.035)">
          <path id="Path_11" data-name="Path 11" d="M121.525,76.526l-2.343-9.315h-9.42v3.916h4.012L101.5,87.9l-9.617-7.647L82.1,89.973a5.886,5.886,0,0,0-5.836-5.138h-.546L83.6,71.127H39.265L46.7,83.274l-6.612,5.477H1.393v3.916h40.12l11.57-9.582,12.187,3.46,4.146,5.148a3.184,3.184,0,0,1-.583,4.557,3.249,3.249,0,0,1-4.2-.3L60.651,92,49.422,100.93l1.155,1.433A22.06,22.06,0,0,1,44.1,116.077c-.028.029-.051.061-.079.088h-.784L39.3,114.206H1.393v3.916H38.365l2.9,1.439a25.02,25.02,0,0,0-4.25,11.61l-8.035-7.984L0,151.989l2.786,2.769,26.192-26.031,8.059,8.009a25.919,25.919,0,0,0,24.379,22.49c.359.014.715.022,1.07.022a25.48,25.48,0,0,0,17.729-7.1,25.276,25.276,0,0,0,1.312-35.32,5.7,5.7,0,0,0-.887-6.539,5.759,5.759,0,0,0,0-7.833,5.808,5.808,0,0,0,1.537-3.916,5.748,5.748,0,0,0-.593-2.516L92.175,85.5l10.086,8.019,14.494-19.807.948,3.766ZM78.237,90.71a1.967,1.967,0,0,1-1.971,1.958H73.955a7.019,7.019,0,0,0-1.464-3.419l-.4-.5h4.177A1.968,1.968,0,0,1,78.237,90.71ZM52.161,78.751l-2.4,1.988-3.485-5.694H76.812l-5.629,9.792H68.939l-1.377-1.712ZM71.194,99.385a7.04,7.04,0,0,0,2.213-2.8h2.859a1.958,1.958,0,1,1,0,3.917h-7.32A7.116,7.116,0,0,0,71.194,99.385Zm7.042,6.991a1.968,1.968,0,0,1-1.971,1.958H68.385a1.958,1.958,0,1,1,0-3.917h7.881A1.967,1.967,0,0,1,78.237,106.376Zm0,7.833a1.968,1.968,0,0,1-1.971,1.958H68.385a1.958,1.958,0,1,1,0-3.917h7.881A1.967,1.967,0,0,1,78.237,114.209Zm-.751,35.119a21.6,21.6,0,0,1-15.911,5.986A21.875,21.875,0,0,1,40.8,134.187a21.29,21.29,0,0,1,6.12-15.378,25.81,25.81,0,0,0,7.62-16.935l5.815-4.623,1.482,1.473a6.875,6.875,0,0,0,.711.587,5.811,5.811,0,0,0,1.46,3.147,5.759,5.759,0,0,0,0,7.833,5.759,5.759,0,0,0,0,7.833H60.5v3.916h-.985a6.854,6.854,0,1,0,0,13.707h5.911a2.938,2.938,0,1,1,0,5.877H59.518a2.95,2.95,0,0,1-2.955-2.937v-.979H52.622v.979a6.882,6.882,0,0,0,6.9,6.854H60.5v3.916h3.941V145.54h.985a6.854,6.854,0,1,0,0-13.707H59.518a2.937,2.937,0,1,1,0-5.875h5.911a2.95,2.95,0,0,1,2.955,2.937v.979h3.941V128.9a6.882,6.882,0,0,0-6.9-6.854h-.985v-3.486a5.884,5.884,0,0,0,3.941,1.527h7.881a5.893,5.893,0,0,0,2.43-.533,21.39,21.39,0,0,1-1.209,29.777Z" transform="translate(0 -67.211)" fill="#fff"/>
        </g>
      </g>
    </g>
    <circle id="Ellipse_8" data-name="Ellipse 8" cx="84" cy="84" r="84" transform="translate(1496 1)" fill="#d3e8f1"/>
    <g id="connect-network-svgrepo-com" transform="translate(1523 3.28)">
      <g id="Group_8" data-name="Group 8" transform="translate(20.116 75.22)">
        <rect id="Rectangle_5" data-name="Rectangle 5" width="3.562" height="28.837" transform="translate(24.895 17.79) rotate(128.088)" fill="#4285f4"/>
        <rect id="Rectangle_6" data-name="Rectangle 6" width="28.835" height="3.561" transform="matrix(-0.787, 0.617, -0.617, -0.787, 73.728, 2.805)" fill="#4285f4"/>
      </g>
      <ellipse id="Ellipse_4" data-name="Ellipse 4" cx="9.27" cy="9.37" rx="9.27" ry="9.37" transform="translate(6.742 31.72)" fill="#57b894"/>
      <path id="Path_12" data-name="Path 12" d="M32.02,144.539A16.1,16.1,0,0,0,16.008,128.36,16.093,16.093,0,0,0,0,144.539Z" transform="translate(0 -75.13)" fill="#57b894"/>
      <ellipse id="Ellipse_5" data-name="Ellipse 5" cx="9.27" cy="9.37" rx="9.27" ry="9.37" transform="translate(88.681 31.72)" fill="#4285f4"/>
      <path id="Path_13" data-name="Path 13" d="M400.152,144.539a16.013,16.013,0,1,0-32.024,0Z" transform="translate(-286.189 -75.13)" fill="#4285f4"/>
      <ellipse id="Ellipse_6" data-name="Ellipse 6" cx="9.27" cy="9.37" rx="9.27" ry="9.37" transform="translate(47.711 93.876)" fill="#57b894"/>
      <path id="Path_14" data-name="Path 14" d="M216.151,423.771a16.013,16.013,0,1,0-32.023,0Z" transform="translate(-143.144 -292.209)" fill="#57b894"/>
    </g>
    <g id="speaker-svgrepo-com" transform="translate(270.565 32.196)">
      <path id="Path_1" data-name="Path 1" d="M121.971,263.359l4.487,34.015a3.208,3.208,0,0,0,3.292,2.787l12.036-.414a3.209,3.209,0,0,0,2.873-4.389l-13.145-33.164Z" transform="translate(-72.465 -194.798)" fill="#d3e8f1"/>
      <path id="Path_2" data-name="Path 2" d="M121.792,269.089l.276,2.377s11.369-1.068,11.162-1.413-2.2-5.891-2.2-5.891L120.9,266.711l.9,2.377" transform="translate(-71.666 -196.259)" fill="#b1c6d3"/>
      <path id="Path_3" data-name="Path 3" d="M65.808,120.806l-9.079,4.467a19.681,19.681,0,0,0-8.972,26.348h0A19.681,19.681,0,0,0,74.1,160.592l9.079-4.467S65.572,120.725,65.808,120.806Z" transform="translate(-15.822 -89.753)" fill="#57b894"/>
      <path id="Path_4" data-name="Path 4" d="M30.183,195.194l-.4.2a9.55,9.55,0,0,0-4.37,12.779l1.273,2.587a9.55,9.55,0,0,0,12.791,4.337h0Z" transform="translate(0 -145.02)" fill="#d3e8f1"/>
      <g id="Group_2" data-name="Group 2" transform="translate(48.023 0)">
        <g id="Group_1" data-name="Group 1">
          <path id="Path_5" data-name="Path 5" d="M166.869,72.528a123.467,123.467,0,0,1-32.7-5.423c-.475-.158-18.126-34.515-17.967-35.007C121.265,16.456,133.3,1.314,133.816.7a1.928,1.928,0,0,1,3.213.38L170.8,69.72a1.928,1.928,0,0,1-1.66,2.777C169.1,72.5,168.289,72.528,166.869,72.528Z" transform="translate(-116.2 0)" fill="#d3e8f1"/>
        </g>
      </g>
      <g id="Group_6" data-name="Group 6" transform="translate(89.437 5.781)">
        <g id="Group_3" data-name="Group 3" transform="translate(5.333 16.104)">
          <path id="Path_6" data-name="Path 6" d="M299.99,95.41a1.928,1.928,0,0,1-.852-3.658l13.043-6.416a1.928,1.928,0,0,1,1.7,3.46l-13.043,6.416A1.92,1.92,0,0,1,299.99,95.41Z" transform="translate(-298.06 -85.137)" fill="#d3e8f1"/>
        </g>
        <g id="Group_4" data-name="Group 4" transform="translate(0)">
          <path id="Path_7" data-name="Path 7" d="M279.238,37.679a1.928,1.928,0,0,1-1.621-2.969l7.2-11.333a1.928,1.928,0,0,1,3.246,2.081l-7.2,11.333A1.926,1.926,0,0,1,279.238,37.679Z" transform="translate(-277.311 -22.49)" fill="#d3e8f1"/>
        </g>
        <g id="Group_5" data-name="Group 5" transform="translate(10.753 34.08)">
          <path id="Path_8" data-name="Path 8" d="M334.268,160.265c-.059,0-.117,0-.177-.008L320.9,158.92a1.928,1.928,0,1,1,.349-3.84l13.193,1.336a1.928,1.928,0,0,1-.172,3.848Z" transform="translate(-319.145 -155.072)" fill="#d3e8f1"/>
        </g>
      </g>
    </g>
  </g>
</svg>
